<!-- <svg width="20" height="19" viewBox="0 0 20 19" fill="none" xmlns="http://www.w3.org/2000/svg">
<path d="M10 1.13262L11.9123 7.01799L11.9909 7.25983H12.2451H18.4334L13.427 10.8972L13.2213 11.0467L13.2998 11.2885L15.2121 17.1739L10.2057 13.5365L10 13.387L9.79428 13.5365L4.78789 17.1739L6.70016 11.2885L6.77874 11.0467L6.57301 10.8972L1.56662 7.25983H7.75486H8.00915L8.08773 7.01799L10 1.13262Z" stroke="black" stroke-width="0.7"/>
</svg> -->


<svg xmlns="http://www.w3.org/2000/svg" viewBox="3 3 18 18" aria-hidden="true" focusable="false"><path d="M12,6.47l1.21,2.84.41,1,1.05.09,3.07.27-2.32,2-.8.69.24,1,.69,3L12.9,15.79l-.9-.53-.9.53L8.45,17.38l.69-3,.24-1-.8-.69-2.32-2,3.07-.27,1.05-.09.41-1L12,6.47m.46-3.39h-.92L9.18,8.63l-6,.52L2.89,10l4.55,4L6.08,19.85l.75.55L12,17.3l5.17,3.1.75-.55L16.56,14l4.55-4-.28-.88-6-.52L12.46,3.08Z"></path></svg>
