<!-- <svg width="20" height="20" viewBox="0 0 20 20" fill="none" xmlns="http://www.w3.org/2000/svg">
<mask id="path-1-inside-1_11_24" fill="white">
<path d="M10 7.63932V2.10871e-06L7.63932 7.63932H0L6.18034 12.3607L3.81966 20L10 15.2786V12.3607V7.63932Z"/>
<path d="M12.3607 7.63932L10 2.10871e-06L7.63932 7.63932H0L6.18034 12.3607L3.81966 20L10 15.2786L16.1803 20L13.8197 12.3607L20 7.63932H12.3607Z"/>
</mask>
<path d="M10 7.63932V2.10871e-06L7.63932 7.63932H0L6.18034 12.3607L3.81966 20L10 15.2786V12.3607V7.63932Z" fill="black"/>
<path d="M3.81966 20L3.48526 19.8967L3.16196 20.9429L4.03213 20.2781L3.81966 20ZM6.18034 12.3607L6.51474 12.464L6.58682 12.2308L6.39281 12.0826L6.18034 12.3607ZM0 7.63932V7.28932H-1.0347L-0.212472 7.91745L0 7.63932ZM7.63932 7.63932V7.98932H7.89749L7.97372 7.74266L7.63932 7.63932ZM9.78753 15.0005L3.60719 19.7219L4.03213 20.2781L10.2125 15.5568L9.78753 15.0005ZM4.15406 20.1033L6.51474 12.464L5.84594 12.2573L3.48526 19.8967L4.15406 20.1033ZM6.39281 12.0826L0.212472 7.36119L-0.212472 7.91745L5.96787 12.6388L6.39281 12.0826ZM0 7.98932H7.63932V7.28932H0V7.98932ZM7.97372 7.74266L10.3344 0.103337L9.6656 -0.103333L7.30492 7.53599L7.97372 7.74266ZM10 2.10871e-06L10.6688 -0.206667L9.3 2.10871e-06H10ZM10 15.2786H9.3V15.6248L9.57505 15.8349L10 15.2786ZM12.3607 7.63932L11.6919 7.84599L11.8443 8.33932H12.3607V7.63932ZM20 7.63932L20.4249 8.19558L22.0694 6.93932H20V7.63932ZM13.8197 12.3607L13.3947 11.8044L13.0067 12.1008L13.1509 12.5673L13.8197 12.3607ZM16.1803 20L15.7554 20.5563L17.4957 21.8858L16.8491 19.7933L16.1803 20ZM9.3 2.10871e-06V7.63932H10.7V2.10871e-06H9.3ZM9.3 7.63932V12.3607H10.7V7.63932H9.3ZM9.3 12.3607V15.2786H10.7V12.3607H9.3ZM9.3312 0.206672L11.6919 7.84599L13.0295 7.43265L10.6688 -0.206667L9.3312 0.206672ZM12.3607 8.33932H20V6.93932H12.3607V8.33932ZM19.5751 7.08306L13.3947 11.8044L14.2446 12.9169L20.4249 8.19558L19.5751 7.08306ZM13.1509 12.5673L15.5115 20.2067L16.8491 19.7933L14.4885 12.154L13.1509 12.5673ZM16.6053 19.4437L10.4249 14.7224L9.57505 15.8349L15.7554 20.5563L16.6053 19.4437Z" fill="black" mask="url(#path-1-inside-1_11_24)"/>
</svg> -->


<svg xmlns="http://www.w3.org/2000/svg" viewBox="3 3 18 18" aria-hidden="true" focusable="false"><path d="M21.11,10c-.13-.42-.15-.46-.28-.88l-6-.52L12.46,3.08h-.92L9.18,8.63l-6,.52C3,9.57,3,9.61,2.89,10l4.55,4L6.08,19.85l.75.55L12,17.3l5.17,3.1.75-.55L16.56,14ZM12.9,15.79l-.9-.53V6.47l1.21,2.84.41,1,1.05.09,3.07.27-2.32,2-.8.69.24,1,.69,3Z"></path></svg>
