<svg width="119" height="37" viewBox="0 0 119 37" fill="none" xmlns="http://www.w3.org/2000/svg">
<path d="M6.81342 27.54C11.6734 27.54 14.1934 25.128 14.1934 21.996C14.1934 19.476 12.7894 17.82 9.15342 16.56L7.35342 15.912C4.72542 15.048 3.64542 14.076 3.64542 12.312C3.64542 10.44 5.04942 9.072 7.82142 9.072C9.29742 9.072 10.5574 9.504 12.0334 10.548V9.36L10.9174 9.18L11.7454 13.356H13.1854L13.3294 9.504C11.5294 8.424 9.94542 7.92 7.82142 7.92C3.46542 7.92 1.05342 10.224 1.05342 13.248C1.05342 15.948 2.88942 17.532 5.80542 18.54L7.67742 19.224C10.6294 20.16 11.5294 21.204 11.5294 22.932C11.5294 24.984 9.90942 26.388 6.70542 26.388C4.61742 26.388 3.24942 25.884 1.88142 24.984V26.28L3.21342 26.352L2.34942 21.852H0.801422V26.1C2.74542 27.036 4.47342 27.54 6.81342 27.54ZM24.0827 27.216H25.4147L31.1027 11.196L31.3547 10.62H30.4547L36.1427 27.216H37.4387L43.7027 8.46H42.2267L37.4387 24.192L37.2947 24.696H37.9427L32.2907 8.46H30.8867L25.3787 24.12L25.1987 24.696L25.8827 24.66L20.6267 8.46H17.4947L24.0827 27.216ZM15.5867 9.504L19.0787 9.828H20.0147L24.2987 9.504V8.46H15.5867V9.504ZM27.5747 9.504L31.2467 9.828H32.0387L35.6747 9.504V8.46H27.5747V9.504ZM38.5907 9.504L42.4067 9.828H42.9107L45.7547 9.504V8.46H38.5907V9.504ZM46.538 27H51.938V25.488H51.506L46.538 25.92V27ZM50.246 27H53.594C53.522 23.004 53.522 18.972 53.522 14.148V13.356C53.522 8.856 53.522 4.788 53.594 0.791998H50.246C50.318 4.824 50.318 8.856 50.318 12.924V14.904C50.318 18.972 50.318 23.04 50.246 27ZM51.938 27H66.302L66.554 20.448H65.006L63.818 26.712L65.402 25.776H51.938V27ZM51.938 14.328H60.578V13.104H51.938V14.328ZM60.326 18H61.586V9.36H60.326L59.858 13.248V14.004L60.326 18ZM46.538 1.908L51.506 2.304H51.938V0.791998H46.538V1.908ZM64.358 7.272H65.906L65.654 0.791998H51.938V2.088H64.79L63.17 1.08L64.358 7.272ZM73.5889 9.792H80.2489V8.46H73.5889V9.792ZM76.5049 27.54C78.4129 27.54 79.8169 26.892 80.7889 25.704L80.2849 25.056C79.3129 25.668 78.6289 25.956 77.5489 25.956C75.9649 25.956 75.1009 25.02 75.1009 22.788V9L75.2449 2.808H73.2289L72.1849 8.856L72.8689 8.352L68.5489 8.676V9.792H72.1129V19.548C72.1129 20.88 72.0769 21.636 72.0769 22.788C72.0769 25.992 73.4809 27.54 76.5049 27.54ZM89.29 27.54C94.15 27.54 96.67 25.128 96.67 21.996C96.67 19.476 95.266 17.82 91.63 16.56L89.83 15.912C87.202 15.048 86.122 14.076 86.122 12.312C86.122 10.44 87.526 9.072 90.298 9.072C91.774 9.072 93.034 9.504 94.51 10.548V9.36L93.394 9.18L94.222 13.356H95.662L95.806 9.504C94.006 8.424 92.422 7.92 90.298 7.92C85.942 7.92 83.53 10.224 83.53 13.248C83.53 15.948 85.366 17.532 88.282 18.54L90.154 19.224C93.106 20.16 94.006 21.204 94.006 22.932C94.006 24.984 92.386 26.388 89.182 26.388C87.094 26.388 85.726 25.884 84.358 24.984V26.28L85.69 26.352L84.826 21.852H83.278V26.1C85.222 27.036 86.95 27.54 89.29 27.54ZM101.159 36.756C104.039 36.756 106.451 34.416 108.611 28.692L116.171 8.46H114.767L111.743 17.136L108.539 26.028L108.359 26.46L107.315 29.088C105.983 32.652 104.111 35.028 101.771 35.676L102.491 36.288L103.607 35.712L102.599 34.704C101.771 33.876 100.943 33.372 100.007 33.372C98.9993 33.372 98.0633 33.84 97.8833 34.812C98.0273 36.072 99.5753 36.756 101.159 36.756ZM108.035 28.872L109.403 25.344L109.187 24.876L103.139 8.46H99.8633L108.035 28.872ZM97.9913 9.432L101.555 9.792H103.031L106.883 9.432V8.46H97.9913V9.432ZM110.843 9.432L114.659 9.792H115.199L118.115 9.432V8.46H110.843V9.432Z" fill="#F1631F"/>
<path d="M9.15342 16.56L8.98405 17.0305L8.98971 17.0324L9.15342 16.56ZM7.35342 15.912L7.52285 15.4414L7.50958 15.437L7.35342 15.912ZM12.0334 10.548L11.7447 10.9562L12.5334 11.5141V10.548H12.0334ZM12.0334 9.36H12.5334V8.93418L12.113 8.86638L12.0334 9.36ZM10.9174 9.18L10.997 8.68638L10.2871 8.57187L10.427 9.27724L10.9174 9.18ZM11.7454 13.356L11.255 13.4532L11.3348 13.856H11.7454V13.356ZM13.1854 13.356V13.856H13.6671L13.6851 13.3747L13.1854 13.356ZM13.3294 9.504L13.8291 9.52268L13.8401 9.22732L13.5867 9.07525L13.3294 9.504ZM5.80542 18.54L5.97704 18.0703L5.96878 18.0674L5.80542 18.54ZM7.67742 19.224L7.50583 19.6936L7.51599 19.6973L7.5263 19.7006L7.67742 19.224ZM1.88142 24.984L2.15623 24.5663L1.38142 24.0565V24.984H1.88142ZM1.88142 26.28H1.38142V26.7537L1.85443 26.7793L1.88142 26.28ZM3.21342 26.352L3.18643 26.8513L3.82504 26.8858L3.70445 26.2577L3.21342 26.352ZM2.34942 21.852L2.84045 21.7577L2.76255 21.352H2.34942V21.852ZM0.801422 21.852V21.352H0.301422V21.852H0.801422ZM0.801422 26.1H0.301422V26.4142L0.584514 26.5505L0.801422 26.1ZM6.81342 28.04C9.32122 28.04 11.2883 27.4178 12.6391 26.3322C13.9998 25.2387 14.6934 23.7069 14.6934 21.996H13.6934C13.6934 23.4171 13.127 24.6573 12.0127 25.5528C10.8886 26.4562 9.16562 27.04 6.81342 27.04V28.04ZM14.6934 21.996C14.6934 20.6315 14.3085 19.4614 13.407 18.4693C12.521 17.4942 11.1714 16.7301 9.31714 16.0876L8.98971 17.0324C10.7715 17.6499 11.9418 18.3438 12.6669 19.1417C13.3763 19.9226 13.6934 20.8405 13.6934 21.996H14.6934ZM9.32278 16.0896L7.52278 15.4416L7.18406 16.3824L8.98406 17.0304L9.32278 16.0896ZM7.50958 15.437C6.21532 15.0115 5.37528 14.5807 4.85922 14.0879C4.37012 13.6208 4.14542 13.0728 4.14542 12.312H3.14542C3.14542 13.3152 3.46072 14.1352 4.16862 14.8111C4.84956 15.4613 5.86352 15.9485 7.19726 16.387L7.50958 15.437ZM4.14542 12.312C4.14542 11.5101 4.44096 10.8473 5.0123 10.3755C5.59395 9.8952 6.5123 9.572 7.82142 9.572V8.572C6.35855 8.572 5.18889 8.9328 4.37555 9.60447C3.55188 10.2847 3.14542 11.2419 3.14542 12.312H4.14542ZM7.82142 9.572C9.17548 9.572 10.3366 9.96026 11.7447 10.9562L12.3222 10.1398C10.7782 9.04774 9.41937 8.572 7.82142 8.572V9.572ZM12.5334 10.548V9.36H11.5334V10.548H12.5334ZM12.113 8.86638L10.997 8.68638L10.8378 9.67362L11.9538 9.85362L12.113 8.86638ZM10.427 9.27724L11.255 13.4532L12.2359 13.2588L11.4079 9.08275L10.427 9.27724ZM11.7454 13.856H13.1854V12.856H11.7454V13.856ZM13.6851 13.3747L13.8291 9.52268L12.8298 9.48532L12.6858 13.3373L13.6851 13.3747ZM13.5867 9.07525C11.7188 7.95453 10.0469 7.42 7.82142 7.42V8.42C9.84398 8.42 11.34 8.89347 13.0722 9.93275L13.5867 9.07525ZM7.82142 7.42C5.55866 7.42 3.74343 8.01869 2.48428 9.06552C1.21775 10.1185 0.553422 11.5937 0.553422 13.248H1.55342C1.55342 11.8783 2.09509 10.6895 3.12357 9.83448C4.15941 8.97331 5.72819 8.42 7.82142 8.42V7.42ZM0.553422 13.248C0.553422 14.726 1.06155 15.9211 1.97489 16.8744C2.87492 17.8138 4.14557 18.4953 5.64207 19.0126L5.96878 18.0674C4.54928 17.5767 3.44393 16.9622 2.69696 16.1826C1.96329 15.4169 1.55342 14.47 1.55342 13.248H0.553422ZM5.63383 19.0096L7.50583 19.6936L7.84902 18.7544L5.97702 18.0704L5.63383 19.0096ZM7.5263 19.7006C8.97979 20.1615 9.8492 20.6269 10.3569 21.1346C10.8373 21.615 11.0294 22.1697 11.0294 22.932H12.0294C12.0294 21.9663 11.7716 21.135 11.064 20.4274C10.3836 19.7471 9.32705 19.2225 7.82854 18.7474L7.5263 19.7006ZM11.0294 22.932C11.0294 23.8119 10.6897 24.5236 10.0179 25.0303C9.32871 25.55 8.24289 25.888 6.70542 25.888V26.888C8.37196 26.888 9.69813 26.524 10.62 25.8287C11.5592 25.1204 12.0294 24.1041 12.0294 22.932H11.0294ZM6.70542 25.888C4.72056 25.888 3.44732 25.4157 2.15623 24.5663L1.60661 25.4017C3.05153 26.3523 4.51429 26.888 6.70542 26.888V25.888ZM1.38142 24.984V26.28H2.38142V24.984H1.38142ZM1.85443 26.7793L3.18643 26.8513L3.24041 25.8527L1.90841 25.7807L1.85443 26.7793ZM3.70445 26.2577L2.84045 21.7577L1.85839 21.9463L2.72239 26.4463L3.70445 26.2577ZM2.34942 21.352H0.801422V22.352H2.34942V21.352ZM0.301422 21.852V26.1H1.30142V21.852H0.301422ZM0.584514 26.5505C2.58217 27.5123 4.38418 28.04 6.81342 28.04V27.04C4.56266 27.04 2.90867 26.5597 1.01833 25.6495L0.584514 26.5505ZM24.0827 27.216L23.611 27.3817L23.7284 27.716H24.0827V27.216ZM25.4147 27.216V27.716H25.7678L25.8859 27.3833L25.4147 27.216ZM31.1027 11.196L30.6447 10.9956L30.6375 11.0119L30.6316 11.0287L31.1027 11.196ZM31.3547 10.62L31.8128 10.8204L32.1192 10.12H31.3547V10.62ZM30.4547 10.62V10.12H29.7548L29.9817 10.7821L30.4547 10.62ZM36.1427 27.216L35.6697 27.3781L35.7855 27.716H36.1427V27.216ZM37.4387 27.216V27.716H37.7989L37.913 27.3744L37.4387 27.216ZM43.7027 8.46L44.177 8.61839L44.3969 7.96H43.7027V8.46ZM42.2267 8.46V7.96H41.8563L41.7484 8.31442L42.2267 8.46ZM37.4387 24.192L36.9603 24.0464L36.958 24.0546L37.4387 24.192ZM37.2947 24.696L36.814 24.5586L36.6319 25.196H37.2947V24.696ZM37.9427 24.696V25.196H38.6462L38.4149 24.5316L37.9427 24.696ZM32.2907 8.46L32.7629 8.29562L32.6461 7.96H32.2907V8.46ZM30.8867 8.46V7.96H30.5326L30.4151 8.2941L30.8867 8.46ZM25.3787 24.12L24.9071 23.9541L24.9041 23.9624L24.9015 23.9709L25.3787 24.12ZM25.1987 24.696L24.7215 24.5469L24.507 25.2331L25.225 25.1953L25.1987 24.696ZM25.8827 24.66L25.909 25.1593L26.5593 25.1251L26.3583 24.5057L25.8827 24.66ZM20.6267 8.46L21.1023 8.30569L20.9902 7.96H20.6267V8.46ZM17.4947 8.46V7.96H16.7892L17.023 8.6257L17.4947 8.46ZM15.5867 9.504H15.0867V9.95975L15.5405 10.0019L15.5867 9.504ZM19.0787 9.828L19.0325 10.3259L19.0556 10.328H19.0787V9.828ZM20.0147 9.828V10.328H20.0336L20.0524 10.3266L20.0147 9.828ZM24.2987 9.504L24.3364 10.0026L24.7987 9.96761V9.504H24.2987ZM24.2987 8.46H24.7987V7.96H24.2987V8.46ZM15.5867 8.46V7.96H15.0867V8.46H15.5867ZM27.5747 9.504H27.0747V9.96182L27.5308 10.0021L27.5747 9.504ZM31.2467 9.828L31.2028 10.3261L31.2247 10.328H31.2467V9.828ZM32.0387 9.828V10.328H32.061L32.0831 10.326L32.0387 9.828ZM35.6747 9.504L35.7191 10.002L36.1747 9.96143V9.504H35.6747ZM35.6747 8.46H36.1747V7.96H35.6747V8.46ZM27.5747 8.46V7.96H27.0747V8.46H27.5747ZM38.5907 9.504H38.0907V9.96335L38.5484 10.0022L38.5907 9.504ZM42.4067 9.828L42.3644 10.3262L42.3855 10.328H42.4067V9.828ZM42.9107 9.828V10.328H42.9391L42.9673 10.3248L42.9107 9.828ZM45.7547 9.504L45.8113 10.0008L46.2547 9.95027V9.504H45.7547ZM45.7547 8.46H46.2547V7.96H45.7547V8.46ZM38.5907 8.46V7.96H38.0907V8.46H38.5907ZM24.0827 27.716H25.4147V26.716H24.0827V27.716ZM25.8859 27.3833L31.5739 11.3633L30.6316 11.0287L24.9436 27.0487L25.8859 27.3833ZM31.5608 11.3964L31.8128 10.8204L30.8967 10.4196L30.6447 10.9956L31.5608 11.3964ZM31.3547 10.12H30.4547V11.12H31.3547V10.12ZM29.9817 10.7821L35.6697 27.3781L36.6157 27.0539L30.9277 10.4579L29.9817 10.7821ZM36.1427 27.716H37.4387V26.716H36.1427V27.716ZM37.913 27.3744L44.177 8.61839L43.2285 8.30161L36.9645 27.0576L37.913 27.3744ZM43.7027 7.96H42.2267V8.96H43.7027V7.96ZM41.7484 8.31442L36.9604 24.0464L37.9171 24.3376L42.7051 8.60558L41.7484 8.31442ZM36.958 24.0546L36.814 24.5586L37.7755 24.8334L37.9195 24.3294L36.958 24.0546ZM37.2947 25.196H37.9427V24.196H37.2947V25.196ZM38.4149 24.5316L32.7629 8.29562L31.8185 8.62438L37.4705 24.8604L38.4149 24.5316ZM32.2907 7.96H30.8867V8.96H32.2907V7.96ZM30.4151 8.2941L24.9071 23.9541L25.8504 24.2859L31.3584 8.6259L30.4151 8.2941ZM24.9015 23.9709L24.7215 24.5469L25.676 24.8451L25.856 24.2691L24.9015 23.9709ZM25.225 25.1953L25.909 25.1593L25.8565 24.1607L25.1725 24.1967L25.225 25.1953ZM26.3583 24.5057L21.1023 8.30569L20.1511 8.6143L25.4071 24.8143L26.3583 24.5057ZM20.6267 7.96H17.4947V8.96H20.6267V7.96ZM17.023 8.6257L23.611 27.3817L24.5545 27.0503L17.9665 8.2943L17.023 8.6257ZM15.5405 10.0019L19.0325 10.3259L19.1249 9.33014L15.6329 9.00614L15.5405 10.0019ZM19.0787 10.328H20.0147V9.328H19.0787V10.328ZM20.0524 10.3266L24.3364 10.0026L24.261 9.00542L19.977 9.32942L20.0524 10.3266ZM24.7987 9.504V8.46H23.7987V9.504H24.7987ZM24.2987 7.96H15.5867V8.96H24.2987V7.96ZM15.0867 8.46V9.504H16.0867V8.46H15.0867ZM27.5308 10.0021L31.2028 10.3261L31.2907 9.32993L27.6187 9.00593L27.5308 10.0021ZM31.2467 10.328H32.0387V9.328H31.2467V10.328ZM32.0831 10.326L35.7191 10.002L35.6304 9.00597L31.9944 9.32997L32.0831 10.326ZM36.1747 9.504V8.46H35.1747V9.504H36.1747ZM35.6747 7.96H27.5747V8.96H35.6747V7.96ZM27.0747 8.46V9.504H28.0747V8.46H27.0747ZM38.5484 10.0022L42.3644 10.3262L42.449 9.32979L38.633 9.00579L38.5484 10.0022ZM42.4067 10.328H42.9107V9.328H42.4067V10.328ZM42.9673 10.3248L45.8113 10.0008L45.6981 9.00721L42.8541 9.33121L42.9673 10.3248ZM46.2547 9.504V8.46H45.2547V9.504H46.2547ZM45.7547 7.96H38.5907V8.96H45.7547V7.96ZM38.0907 8.46V9.504H39.0907V8.46H38.0907ZM46.538 27H46.038V27.5H46.538V27ZM51.938 27V27.5H52.438V27H51.938ZM51.938 25.488H52.438V24.988H51.938V25.488ZM51.506 25.488V24.988H51.4843L51.4627 24.9899L51.506 25.488ZM46.538 25.92L46.4947 25.4219L46.038 25.4616V25.92H46.538ZM50.246 27L49.7461 26.9909L49.7368 27.5H50.246V27ZM53.594 27V27.5H54.1031L54.0939 26.991L53.594 27ZM53.594 0.791998L54.0939 0.801006L54.1031 0.291998H53.594V0.791998ZM50.246 0.791998V0.291998H49.737L49.7461 0.800926L50.246 0.791998ZM51.938 27H51.438V27.5H51.938V27ZM66.302 27V27.5H66.7832L66.8016 27.0192L66.302 27ZM66.554 20.448L67.0536 20.4672L67.0736 19.948H66.554V20.448ZM65.006 20.448V19.948H64.5919L64.5148 20.3548L65.006 20.448ZM63.818 26.712L63.3268 26.6188L63.1208 27.7047L64.0724 27.1425L63.818 26.712ZM65.402 25.776L65.6564 26.2065L67.231 25.276H65.402V25.776ZM51.938 25.776V25.276H51.438V25.776H51.938ZM51.938 14.328H51.438V14.828H51.938V14.328ZM60.578 14.328V14.828H61.078V14.328H60.578ZM60.578 13.104H61.078V12.604H60.578V13.104ZM51.938 13.104V12.604H51.438V13.104H51.938ZM60.326 18L59.8294 18.0582L59.8812 18.5H60.326V18ZM61.586 18V18.5H62.086V18H61.586ZM61.586 9.36H62.086V8.86H61.586V9.36ZM60.326 9.36V8.86H59.8826L59.8296 9.30025L60.326 9.36ZM59.858 13.248L59.3616 13.1882L59.358 13.218V13.248H59.858ZM59.858 14.004H59.358V14.0332L59.3614 14.0622L59.858 14.004ZM46.538 1.908H46.038V2.36973L46.4983 2.40642L46.538 1.908ZM51.506 2.304L51.4663 2.80242L51.4861 2.804H51.506V2.304ZM51.938 2.304V2.804H52.438V2.304H51.938ZM51.938 0.791998H52.438V0.291998H51.938V0.791998ZM46.538 0.791998V0.291998H46.038V0.791998H46.538ZM64.358 7.272L63.867 7.36621L63.9448 7.772H64.358V7.272ZM65.906 7.272V7.772H66.4258L66.4056 7.25257L65.906 7.272ZM65.654 0.791998L66.1536 0.772569L66.1349 0.291998H65.654V0.791998ZM51.938 0.791998V0.291998H51.438V0.791998H51.938ZM51.938 2.088H51.438V2.588H51.938V2.088ZM64.79 2.088V2.588H66.54L65.0542 1.66347L64.79 2.088ZM63.17 1.08L63.4342 0.655471L62.4636 0.0515485L62.679 1.17421L63.17 1.08ZM46.538 27.5H51.938V26.5H46.538V27.5ZM52.438 27V25.488H51.438V27H52.438ZM51.938 24.988H51.506V25.988H51.938V24.988ZM51.4627 24.9899L46.4947 25.4219L46.5813 26.4181L51.5493 25.9861L51.4627 24.9899ZM46.038 25.92V27H47.038V25.92H46.038ZM50.246 27.5H53.594V26.5H50.246V27.5ZM54.0939 26.991C54.022 23.0003 54.022 18.973 54.022 14.148H53.022C53.022 18.971 53.022 23.0077 53.0941 27.009L54.0939 26.991ZM54.022 14.148V13.356H53.022V14.148H54.022ZM54.022 13.356C54.022 8.85507 54.022 4.79169 54.0939 0.801006L53.0941 0.782991C53.022 4.7843 53.022 8.85693 53.022 13.356H54.022ZM53.594 0.291998H50.246V1.292H53.594V0.291998ZM49.7461 0.800926C49.818 4.82771 49.818 8.85525 49.818 12.924H50.818C50.818 8.85675 50.818 4.82028 50.7459 0.783071L49.7461 0.800926ZM49.818 12.924V14.904H50.818V12.924H49.818ZM49.818 14.904C49.818 18.9728 49.818 23.0362 49.7461 26.9909L50.7459 27.0091C50.818 23.0438 50.818 18.9712 50.818 14.904H49.818ZM51.938 27.5H66.302V26.5H51.938V27.5ZM66.8016 27.0192L67.0536 20.4672L66.0544 20.4288L65.8024 26.9808L66.8016 27.0192ZM66.554 19.948H65.006V20.948H66.554V19.948ZM64.5148 20.3548L63.3268 26.6188L64.3093 26.8052L65.4973 20.5412L64.5148 20.3548ZM64.0724 27.1425L65.6564 26.2065L65.1477 25.3455L63.5637 26.2815L64.0724 27.1425ZM65.402 25.276H51.938V26.276H65.402V25.276ZM51.438 25.776V27H52.438V25.776H51.438ZM51.938 14.828H60.578V13.828H51.938V14.828ZM61.078 14.328V13.104H60.078V14.328H61.078ZM60.578 12.604H51.938V13.604H60.578V12.604ZM51.438 13.104V14.328H52.438V13.104H51.438ZM60.326 18.5H61.586V17.5H60.326V18.5ZM62.086 18V9.36H61.086V18H62.086ZM61.586 8.86H60.326V9.86H61.586V8.86ZM59.8296 9.30025L59.3616 13.1882L60.3544 13.3078L60.8224 9.41975L59.8296 9.30025ZM59.358 13.248V14.004H60.358V13.248H59.358ZM59.3614 14.0622L59.8294 18.0582L60.8226 17.9418L60.3546 13.9458L59.3614 14.0622ZM46.4983 2.40642L51.4663 2.80242L51.5457 1.80558L46.5777 1.40958L46.4983 2.40642ZM51.506 2.804H51.938V1.804H51.506V2.804ZM52.438 2.304V0.791998H51.438V2.304H52.438ZM51.938 0.291998H46.538V1.292H51.938V0.291998ZM46.038 0.791998V1.908H47.038V0.791998H46.038ZM64.358 7.772H65.906V6.772H64.358V7.772ZM66.4056 7.25257L66.1536 0.772569L65.1544 0.811428L65.4064 7.29143L66.4056 7.25257ZM65.654 0.291998H51.938V1.292H65.654V0.291998ZM51.438 0.791998V2.088H52.438V0.791998H51.438ZM51.938 2.588H64.79V1.588H51.938V2.588ZM65.0542 1.66347L63.4342 0.655471L62.9059 1.50453L64.5259 2.51253L65.0542 1.66347ZM62.679 1.17421L63.867 7.36621L64.8491 7.17779L63.6611 0.985787L62.679 1.17421ZM73.5889 9.792H73.0889V10.292H73.5889V9.792ZM80.2489 9.792V10.292H80.7489V9.792H80.2489ZM80.2489 8.46H80.7489V7.96H80.2489V8.46ZM73.5889 8.46V7.96H73.0889V8.46H73.5889ZM80.7889 25.704L81.1759 26.0206L81.4285 25.7119L81.1836 25.397L80.7889 25.704ZM80.2849 25.056L80.6796 24.749L80.4016 24.3917L80.0185 24.6329L80.2849 25.056ZM75.1009 9L74.6009 8.98837V9H75.1009ZM75.2449 2.808L75.7448 2.81962L75.7567 2.308H75.2449V2.808ZM73.2289 2.808V2.308H72.8078L72.7362 2.72295L73.2289 2.808ZM72.1849 8.856L71.6922 8.77095L71.4808 9.99594L72.4815 9.25853L72.1849 8.856ZM72.8689 8.352L73.1655 8.75453L74.5649 7.7234L72.8315 7.8534L72.8689 8.352ZM68.5489 8.676L68.5115 8.1774L68.0489 8.2121V8.676H68.5489ZM68.5489 9.792H68.0489V10.292H68.5489V9.792ZM72.1129 9.792H72.6129V9.292H72.1129V9.792ZM73.5889 10.292H80.2489V9.292H73.5889V10.292ZM80.7489 9.792V8.46H79.7489V9.792H80.7489ZM80.2489 7.96H73.5889V8.96H80.2489V7.96ZM73.0889 8.46V9.792H74.0889V8.46H73.0889ZM76.5049 28.04C78.5394 28.04 80.095 27.3417 81.1759 26.0206L80.4019 25.3874C79.5388 26.4423 78.2864 27.04 76.5049 27.04V28.04ZM81.1836 25.397L80.6796 24.749L79.8902 25.363L80.3942 26.011L81.1836 25.397ZM80.0185 24.6329C79.0921 25.2162 78.5011 25.456 77.5489 25.456V26.456C78.7568 26.456 79.5338 26.1198 80.5513 25.4791L80.0185 24.6329ZM77.5489 25.456C76.8591 25.456 76.4121 25.257 76.12 24.895C75.8099 24.5108 75.6009 23.8544 75.6009 22.788H74.6009C74.6009 23.9536 74.8239 24.8812 75.3418 25.523C75.8777 26.187 76.6547 26.456 77.5489 26.456V25.456ZM75.6009 22.788V9H74.6009V22.788H75.6009ZM75.6008 9.01162L75.7448 2.81962L74.7451 2.79637L74.6011 8.98838L75.6008 9.01162ZM75.2449 2.308H73.2289V3.308H75.2449V2.308ZM72.7362 2.72295L71.6922 8.77095L72.6776 8.94105L73.7216 2.89305L72.7362 2.72295ZM72.4815 9.25853L73.1655 8.75453L72.5723 7.94947L71.8883 8.45347L72.4815 9.25853ZM72.8315 7.8534L68.5115 8.1774L68.5863 9.1746L72.9063 8.8506L72.8315 7.8534ZM68.0489 8.676V9.792H69.0489V8.676H68.0489ZM68.5489 10.292H72.1129V9.292H68.5489V10.292ZM71.6129 9.792V19.548H72.6129V9.792H71.6129ZM71.6129 19.548C71.6129 20.2092 71.604 20.7275 71.595 21.2265C71.586 21.7254 71.5769 22.2068 71.5769 22.788H72.5769C72.5769 22.2172 72.5858 21.7446 72.5948 21.2445C72.6038 20.7445 72.6129 20.2188 72.6129 19.548H71.6129ZM71.5769 22.788C71.5769 24.4514 71.9399 25.7868 72.79 26.7052C73.6474 27.6314 74.9127 28.04 76.5049 28.04V27.04C75.0732 27.04 74.1244 26.6746 73.5238 26.0258C72.916 25.3692 72.5769 24.3286 72.5769 22.788H71.5769ZM91.63 16.56L91.4606 17.0305L91.4663 17.0324L91.63 16.56ZM89.83 15.912L89.9994 15.4414L89.9861 15.437L89.83 15.912ZM94.51 10.548L94.2213 10.9562L95.01 11.5141V10.548H94.51ZM94.51 9.36H95.01V8.93418L94.5896 8.86638L94.51 9.36ZM93.394 9.18L93.4736 8.68638L92.7637 8.57187L92.9035 9.27724L93.394 9.18ZM94.222 13.356L93.7315 13.4532L93.8114 13.856H94.222V13.356ZM95.662 13.356V13.856H96.1436L96.1616 13.3747L95.662 13.356ZM95.806 9.504L96.3056 9.52268L96.3167 9.22732L96.0632 9.07525L95.806 9.504ZM88.282 18.54L88.4536 18.0703L88.4453 18.0674L88.282 18.54ZM90.154 19.224L89.9824 19.6936L89.9925 19.6973L90.0029 19.7006L90.154 19.224ZM84.358 24.984L84.6328 24.5663L83.858 24.0565V24.984H84.358ZM84.358 26.28H83.858V26.7537L84.331 26.7793L84.358 26.28ZM85.69 26.352L85.663 26.8513L86.3016 26.8858L86.181 26.2577L85.69 26.352ZM84.826 21.852L85.317 21.7577L85.2391 21.352H84.826V21.852ZM83.278 21.852V21.352H82.778V21.852H83.278ZM83.278 26.1H82.778V26.4142L83.0611 26.5505L83.278 26.1ZM89.29 28.04C91.7978 28.04 93.7648 27.4178 95.1157 26.3322C96.4764 25.2387 97.17 23.7069 97.17 21.996H96.17C96.17 23.4171 95.6036 24.6573 94.4893 25.5528C93.3651 26.4562 91.6422 27.04 89.29 27.04V28.04ZM97.17 21.996C97.17 20.6315 96.7851 19.4614 95.8835 18.4693C94.9976 17.4942 93.648 16.7301 91.7937 16.0876L91.4663 17.0324C93.248 17.6499 94.4184 18.3438 95.1434 19.1417C95.8529 19.9226 96.17 20.8405 96.17 21.996H97.17ZM91.7993 16.0896L89.9993 15.4416L89.6606 16.3824L91.4606 17.0304L91.7993 16.0896ZM89.9861 15.437C88.6919 15.0115 87.8518 14.5807 87.3358 14.0879C86.8467 13.6208 86.622 13.0728 86.622 12.312H85.622C85.622 13.3152 85.9373 14.1352 86.6452 14.8111C87.3261 15.4613 88.3401 15.9485 89.6738 16.387L89.9861 15.437ZM86.622 12.312C86.622 11.5101 86.9175 10.8473 87.4889 10.3755C88.0705 9.8952 88.9889 9.572 90.298 9.572V8.572C88.8351 8.572 87.6655 8.9328 86.8521 9.60447C86.0284 10.2847 85.622 11.2419 85.622 12.312H86.622ZM90.298 9.572C91.652 9.572 92.8132 9.96026 94.2213 10.9562L94.7987 10.1398C93.2548 9.04774 91.8959 8.572 90.298 8.572V9.572ZM95.01 10.548V9.36H94.01V10.548H95.01ZM94.5896 8.86638L93.4736 8.68638L93.3144 9.67362L94.4304 9.85362L94.5896 8.86638ZM92.9035 9.27724L93.7315 13.4532L94.7124 13.2588L93.8844 9.08275L92.9035 9.27724ZM94.222 13.856H95.662V12.856H94.222V13.856ZM96.1616 13.3747L96.3056 9.52268L95.3063 9.48532L95.1623 13.3373L96.1616 13.3747ZM96.0632 9.07525C94.1954 7.95453 92.5234 7.42 90.298 7.42V8.42C92.3205 8.42 93.8166 8.89347 95.5487 9.93275L96.0632 9.07525ZM90.298 7.42C88.0352 7.42 86.22 8.01869 84.9608 9.06552C83.6943 10.1185 83.03 11.5937 83.03 13.248H84.03C84.03 11.8783 84.5717 10.6895 85.6001 9.83448C86.636 8.97331 88.2047 8.42 90.298 8.42V7.42ZM83.03 13.248C83.03 14.726 83.5381 15.9211 84.4515 16.8744C85.3515 17.8138 86.6221 18.4953 88.1186 19.0126L88.4453 18.0674C87.0258 17.5767 85.9205 16.9622 85.1735 16.1826C84.4399 15.4169 84.03 14.47 84.03 13.248H83.03ZM88.1104 19.0096L89.9824 19.6936L90.3256 18.7544L88.4536 18.0704L88.1104 19.0096ZM90.0029 19.7006C91.4564 20.1615 92.3258 20.6269 92.8334 21.1346C93.3138 21.615 93.506 22.1697 93.506 22.932H94.506C94.506 21.9663 94.2481 21.135 93.5405 20.4274C92.8602 19.7471 91.8036 19.2225 90.3051 18.7474L90.0029 19.7006ZM93.506 22.932C93.506 23.8119 93.1663 24.5236 92.4944 25.0303C91.8053 25.55 90.7194 25.888 89.182 25.888V26.888C90.8485 26.888 92.1747 26.524 93.0966 25.8287C94.0357 25.1204 94.506 24.1041 94.506 22.932H93.506ZM89.182 25.888C87.1971 25.888 85.9239 25.4157 84.6328 24.5663L84.0832 25.4017C85.5281 26.3523 86.9908 26.888 89.182 26.888V25.888ZM83.858 24.984V26.28H84.858V24.984H83.858ZM84.331 26.7793L85.663 26.8513L85.717 25.8527L84.385 25.7807L84.331 26.7793ZM86.181 26.2577L85.317 21.7577L84.335 21.9463L85.199 26.4463L86.181 26.2577ZM84.826 21.352H83.278V22.352H84.826V21.352ZM82.778 21.852V26.1H83.778V21.852H82.778ZM83.0611 26.5505C85.0587 27.5123 86.8607 28.04 89.29 28.04V27.04C87.0392 27.04 85.3852 26.5597 83.4949 25.6495L83.0611 26.5505ZM108.611 28.692L109.079 28.8685L109.08 28.867L108.611 28.692ZM116.171 8.46L116.64 8.63501L116.892 7.96H116.171V8.46ZM114.767 8.46V7.96H114.412L114.295 8.29543L114.767 8.46ZM111.743 17.136L112.214 17.3055L112.215 17.3006L111.743 17.136ZM108.539 26.028L109.001 26.2203L109.006 26.209L109.01 26.1975L108.539 26.028ZM108.359 26.46L107.898 26.2677L107.895 26.2754L108.359 26.46ZM107.315 29.088L106.851 28.9034L106.847 28.913L107.315 29.088ZM101.771 35.676L101.638 35.1941L100.729 35.4459L101.447 36.057L101.771 35.676ZM102.491 36.288L102.167 36.669L102.423 36.886L102.721 36.7323L102.491 36.288ZM103.607 35.712L103.837 36.1563L104.445 35.8424L103.961 35.3584L103.607 35.712ZM97.8833 34.812L97.3917 34.721L97.378 34.7945L97.3865 34.8688L97.8833 34.812ZM108.035 28.872L107.571 29.0578L108.043 30.2358L108.501 29.0528L108.035 28.872ZM109.403 25.344L109.869 25.5248L109.946 25.327L109.857 25.1345L109.403 25.344ZM109.187 24.876L108.718 25.0489L108.725 25.0675L108.733 25.0855L109.187 24.876ZM103.139 8.46L103.608 8.28715L103.488 7.96H103.139V8.46ZM99.8633 8.46V7.96H99.1245L99.3991 8.64583L99.8633 8.46ZM97.9913 9.432H97.4913V9.88404L97.941 9.92947L97.9913 9.432ZM101.555 9.792L101.505 10.2895L101.53 10.292H101.555V9.792ZM103.031 9.792V10.292H103.055L103.078 10.2898L103.031 9.792ZM106.883 9.432L106.93 9.92983L107.383 9.88745V9.432H106.883ZM106.883 8.46H107.383V7.96H106.883V8.46ZM97.9913 8.46V7.96H97.4913V8.46H97.9913ZM110.843 9.432H110.343V9.88705L110.796 9.92979L110.843 9.432ZM114.659 9.792L114.612 10.2898L114.636 10.292H114.659V9.792ZM115.199 9.792V10.292H115.23L115.261 10.2882L115.199 9.792ZM118.115 9.432L118.177 9.92823L118.615 9.87407V9.432H118.115ZM118.115 8.46H118.615V7.96H118.115V8.46ZM110.843 8.46V7.96H110.343V8.46H110.843ZM101.159 37.256C104.389 37.256 106.913 34.6079 109.079 28.8685L108.143 28.5155C105.989 34.2241 103.69 36.256 101.159 36.256V37.256ZM109.08 28.867L116.64 8.63501L115.703 8.28498L108.143 28.517L109.08 28.867ZM116.171 7.96H114.767V8.96H116.171V7.96ZM114.295 8.29543L111.271 16.9714L112.215 17.3006L115.239 8.62456L114.295 8.29543ZM111.273 16.9665L108.069 25.8585L109.01 26.1975L112.214 17.3055L111.273 16.9665ZM108.078 25.8357L107.898 26.2677L108.821 26.6523L109.001 26.2203L108.078 25.8357ZM107.895 26.2754L106.851 28.9034L107.78 29.2726L108.824 26.6446L107.895 26.2754ZM106.847 28.913C105.53 32.4364 103.738 34.6126 101.638 35.1941L101.905 36.1579C104.485 35.4434 106.437 32.8676 107.784 29.263L106.847 28.913ZM101.447 36.057L102.167 36.669L102.815 35.907L102.095 35.295L101.447 36.057ZM102.721 36.7323L103.837 36.1563L103.378 35.2677L102.262 35.8437L102.721 36.7323ZM103.961 35.3584L102.953 34.3504L102.246 35.0576L103.254 36.0656L103.961 35.3584ZM102.953 34.3504C102.088 33.4858 101.139 32.872 100.007 32.872V33.872C100.747 33.872 101.454 34.2662 102.246 35.0576L102.953 34.3504ZM100.007 32.872C98.8858 32.872 97.6352 33.4056 97.3917 34.721L98.3749 34.903C98.4914 34.2744 99.1128 33.872 100.007 33.872V32.872ZM97.3865 34.8688C97.4829 35.7121 98.0487 36.3178 98.7421 36.6956C99.4338 37.0724 100.303 37.256 101.159 37.256V36.256C100.432 36.256 99.7348 36.0976 99.2205 35.8174C98.7079 35.5382 98.4277 35.1719 98.3801 34.7552L97.3865 34.8688ZM108.501 29.0528L109.869 25.5248L108.937 25.1632L107.569 28.6912L108.501 29.0528ZM109.857 25.1345L109.641 24.6665L108.733 25.0855L108.949 25.5535L109.857 25.1345ZM109.656 24.7031L103.608 8.28715L102.67 8.63285L108.718 25.0489L109.656 24.7031ZM103.139 7.96H99.8633V8.96H103.139V7.96ZM99.3991 8.64583L107.571 29.0578L108.499 28.6862L100.327 8.27416L99.3991 8.64583ZM97.941 9.92947L101.505 10.2895L101.606 9.29453L98.0415 8.93453L97.941 9.92947ZM101.555 10.292H103.031V9.292H101.555V10.292ZM103.078 10.2898L106.93 9.92983L106.837 8.93417L102.985 9.29417L103.078 10.2898ZM107.383 9.432V8.46H106.383V9.432H107.383ZM106.883 7.96H97.9913V8.96H106.883V7.96ZM97.4913 8.46V9.432H98.4913V8.46H97.4913ZM110.796 9.92979L114.612 10.2898L114.706 9.29421L110.89 8.93421L110.796 9.92979ZM114.659 10.292H115.199V9.292H114.659V10.292ZM115.261 10.2882L118.177 9.92823L118.054 8.93577L115.138 9.29577L115.261 10.2882ZM118.615 9.432V8.46H117.615V9.432H118.615ZM118.115 7.96H110.843V8.96H118.115V7.96ZM110.343 8.46V9.432H111.343V8.46H110.343Z" fill="#F1631F"/>
</svg>
