<svg xmlns="http://www.w3.org/2000/svg" viewBox="0 0 24 24" aria-hidden="true" focusable="false"><path d="M16.5,12h-9a0.5,0.5,0,0,1,0-1h9A0.5,0.5,0,0,1,16.5,12Z"></path><path d="M15.5,15h-8a0.5,0.5,0,0,1,0-1h8A0.5,0.5,0,0,1,15.5,15Z"></path><path d="M13.5,18h-6a0.5,0.5,0,0,1,0-1h6A0.5,0.5,0,1,1,13.5,18Z"></path><path d="M20,3H15.859A3.982,3.982,0,0,0,8.141,3H4A1,1,0,0,0,3,4V21a1,1,0,0,0,1,1H20a1,1,0,0,0,1-1V4A1,1,0,0,0,20,3ZM10,5h0.277A1.979,1.979,0,0,1,10,4a2,2,0,0,1,4,0,1.979,1.979,0,0,1-.277,1H14a2,2,0,0,1,2,2H8A2,2,0,0,1,10,5Zm9,15H5V5H6.54A3.972,3.972,0,0,0,6,7V9H18V7a3.972,3.972,0,0,0-.54-2H19V20Z"></path><circle cx="12" cy="3.5" r="0.5"></circle></svg>
